<mxfile host="app.diagrams.net" modified="2024-03-08T20:46:00.777Z" agent="Mozilla/5.0 (Windows NT 10.0; Win64; x64) AppleWebKit/537.36 (KHTML, like Gecko) Chrome/122.0.0.0 Safari/537.36 Edg/122.0.0.0" etag="EMkSTzIXRCdd3lnuBdXk" version="23.1.7" type="device">
  <diagram name="Página-1" id="aflP0IknNWOV-XmlazaR">
    <mxGraphModel dx="1307" dy="599" grid="1" gridSize="10" guides="1" tooltips="1" connect="1" arrows="1" fold="1" page="1" pageScale="1" pageWidth="827" pageHeight="1169" math="0" shadow="0">
      <root>
        <mxCell id="0" />
        <mxCell id="1" parent="0" />
        <mxCell id="Wj-DR0teLRXhnAtGao1j-21" value="" style="edgeStyle=orthogonalEdgeStyle;rounded=0;orthogonalLoop=1;jettySize=auto;html=1;" edge="1" parent="1" source="Wj-DR0teLRXhnAtGao1j-19" target="Wj-DR0teLRXhnAtGao1j-20">
          <mxGeometry relative="1" as="geometry" />
        </mxCell>
        <mxCell id="Wj-DR0teLRXhnAtGao1j-19" value="INICIO" style="ellipse;whiteSpace=wrap;html=1;" vertex="1" parent="1">
          <mxGeometry x="10" y="20" width="120" height="80" as="geometry" />
        </mxCell>
        <mxCell id="Wj-DR0teLRXhnAtGao1j-23" value="" style="edgeStyle=orthogonalEdgeStyle;rounded=0;orthogonalLoop=1;jettySize=auto;html=1;" edge="1" parent="1" source="Wj-DR0teLRXhnAtGao1j-20" target="Wj-DR0teLRXhnAtGao1j-22">
          <mxGeometry relative="1" as="geometry" />
        </mxCell>
        <mxCell id="Wj-DR0teLRXhnAtGao1j-20" value="Ingresar salario del empleado" style="whiteSpace=wrap;html=1;" vertex="1" parent="1">
          <mxGeometry x="210" y="30" width="180" height="60" as="geometry" />
        </mxCell>
        <mxCell id="Wj-DR0teLRXhnAtGao1j-25" value="" style="edgeStyle=orthogonalEdgeStyle;rounded=0;orthogonalLoop=1;jettySize=auto;html=1;" edge="1" parent="1" source="Wj-DR0teLRXhnAtGao1j-22" target="Wj-DR0teLRXhnAtGao1j-24">
          <mxGeometry relative="1" as="geometry" />
        </mxCell>
        <mxCell id="Wj-DR0teLRXhnAtGao1j-27" value="" style="edgeStyle=orthogonalEdgeStyle;rounded=0;orthogonalLoop=1;jettySize=auto;html=1;" edge="1" parent="1" source="Wj-DR0teLRXhnAtGao1j-22" target="Wj-DR0teLRXhnAtGao1j-26">
          <mxGeometry relative="1" as="geometry" />
        </mxCell>
        <mxCell id="Wj-DR0teLRXhnAtGao1j-22" value=" &quot;¿Salario &amp;lt; $2000?&quot;" style="rhombus;whiteSpace=wrap;html=1;" vertex="1" parent="1">
          <mxGeometry x="520" y="20" width="190" height="190" as="geometry" />
        </mxCell>
        <mxCell id="Wj-DR0teLRXhnAtGao1j-33" value="" style="edgeStyle=orthogonalEdgeStyle;rounded=0;orthogonalLoop=1;jettySize=auto;html=1;entryX=0.5;entryY=0;entryDx=0;entryDy=0;" edge="1" parent="1" source="Wj-DR0teLRXhnAtGao1j-24" target="Wj-DR0teLRXhnAtGao1j-30">
          <mxGeometry relative="1" as="geometry">
            <mxPoint x="1020" y="225" as="targetPoint" />
          </mxGeometry>
        </mxCell>
        <mxCell id="Wj-DR0teLRXhnAtGao1j-24" value="No" style="whiteSpace=wrap;html=1;" vertex="1" parent="1">
          <mxGeometry x="937.5" y="85" width="165" height="60" as="geometry" />
        </mxCell>
        <mxCell id="Wj-DR0teLRXhnAtGao1j-29" value="" style="edgeStyle=orthogonalEdgeStyle;rounded=0;orthogonalLoop=1;jettySize=auto;html=1;" edge="1" parent="1" source="Wj-DR0teLRXhnAtGao1j-26" target="Wj-DR0teLRXhnAtGao1j-28">
          <mxGeometry relative="1" as="geometry" />
        </mxCell>
        <mxCell id="Wj-DR0teLRXhnAtGao1j-26" value="Si" style="whiteSpace=wrap;html=1;" vertex="1" parent="1">
          <mxGeometry x="531.25" y="420" width="167.5" height="60" as="geometry" />
        </mxCell>
        <mxCell id="Wj-DR0teLRXhnAtGao1j-31" value="" style="edgeStyle=orthogonalEdgeStyle;rounded=0;orthogonalLoop=1;jettySize=auto;html=1;" edge="1" parent="1" source="Wj-DR0teLRXhnAtGao1j-28" target="Wj-DR0teLRXhnAtGao1j-30">
          <mxGeometry relative="1" as="geometry" />
        </mxCell>
        <mxCell id="Wj-DR0teLRXhnAtGao1j-28" value="Añadir aumento del 15%" style="whiteSpace=wrap;html=1;" vertex="1" parent="1">
          <mxGeometry x="802.5" y="420" width="120" height="60" as="geometry" />
        </mxCell>
        <mxCell id="Wj-DR0teLRXhnAtGao1j-30" value="FIN" style="ellipse;whiteSpace=wrap;html=1;" vertex="1" parent="1">
          <mxGeometry x="1022.5" y="410" width="80" height="80" as="geometry" />
        </mxCell>
      </root>
    </mxGraphModel>
  </diagram>
</mxfile>
